<svg width="16" height="9" viewBox="0 0 16 9" fill="none" xmlns="http://www.w3.org/2000/svg">
<path d="M0.184073 8.7275C0.0547671 8.59833 -0.00641352 8.44986 0.00053092 8.28208C0.00747536 8.11431 0.068656 7.97278 0.184073 7.8575L4.38761 3.59937C4.67498 3.3066 5.03074 3.16021 5.45491 3.16021C5.87893 3.16021 6.23734 3.3066 6.53011 3.59937L8.61178 5.69396C8.65998 5.74201 8.7188 5.76604 8.78824 5.76604C8.85768 5.76604 8.91907 5.74201 8.97241 5.69396L13.4662 1.25H11.6199C11.4425 1.25 11.2941 1.19021 11.1745 1.07062C11.0548 0.950902 10.9949 0.802361 10.9949 0.625C10.9949 0.447639 11.0548 0.299167 11.1745 0.179583C11.2941 0.059861 11.4425 0 11.6199 0H14.8249C15.0398 0 15.219 0.0718745 15.3626 0.215624C15.5064 0.359374 15.5782 0.538611 15.5782 0.753333V3.95833C15.5782 4.13569 15.5184 4.28424 15.3987 4.40396C15.2791 4.52354 15.1306 4.58333 14.9532 4.58333C14.7759 4.58333 14.6274 4.52486 14.5078 4.40792C14.3881 4.29097 14.3282 4.14382 14.3282 3.96646V2.12812L9.85553 6.60104C9.56803 6.8884 9.21227 7.03208 8.78824 7.03208C8.36407 7.03208 8.00831 6.8884 7.72095 6.60104L5.63907 4.51917C5.59102 4.47111 5.52963 4.44708 5.45491 4.44708C5.38004 4.44708 5.31859 4.47111 5.27053 4.51917L1.0622 8.7275C0.941503 8.84833 0.795114 8.90875 0.623031 8.90875C0.451086 8.90875 0.304767 8.84833 0.184073 8.7275Z" fill="#139F47"/>
</svg>
