<svg width="14" height="14" viewBox="0 0 14 14" fill="none" xmlns="http://www.w3.org/2000/svg">
<path d="M14 5.54167C14 4.83642 13.4989 4.24783 12.8333 4.1125V0H11.6667C11.6667 1.59192 9.4045 2.33333 7.875 2.33333H1.75C0.785167 2.33333 0 3.1185 0 4.08333V7C0 7.86625 0.632917 8.58725 1.46008 8.7255L3.38333 14H4.81133C5.35675 14 5.859 13.727 6.15708 13.2697C6.454 12.8123 6.49892 12.2418 6.29067 11.7752L5.1555 8.74942H7.875C9.4045 8.74942 11.6667 9.49083 11.6667 11.0828H12.8333V6.97025C13.4989 6.83492 14 6.24692 14 5.54108V5.54167ZM1.16667 7V4.08333C1.16667 3.76192 1.42858 3.5 1.75 3.5H4.08333V7.58333H1.75C1.42858 7.58333 1.16667 7.32142 1.16667 7ZM5.2115 12.2168C5.27217 12.3533 5.25992 12.509 5.17883 12.6338C5.09775 12.7587 4.96008 12.8333 4.81192 12.8333H4.2L2.71133 8.75H3.91008L5.2115 12.2168ZM7.875 7.58333H5.25V3.5H7.875C9.27617 3.5 10.7053 3.06717 11.6667 2.28317V8.80075C10.7053 8.01675 9.27617 7.58392 7.875 7.58392V7.58333Z" fill="white"/>
</svg>
