<svg width="18" height="18" viewBox="0 0 18 18" fill="none" xmlns="http://www.w3.org/2000/svg">
<path d="M7.1445 8.00003C6.6315 7.48716 6.375 6.86866 6.375 6.14453C6.375 5.42053 6.6315 4.80203 7.1445 4.28903C7.6575 3.77603 8.276 3.51953 9 3.51953C9.724 3.51953 10.3425 3.77603 10.8555 4.28903C11.3685 4.80203 11.625 5.42053 11.625 6.14453C11.625 6.86866 11.3685 7.48716 10.8555 8.00003C10.3425 8.51303 9.724 8.76953 9 8.76953C8.276 8.76953 7.6575 8.51303 7.1445 8.00003ZM3.375 13.3417V12.8137C3.375 12.4465 3.47475 12.1063 3.67425 11.7933C3.87375 11.4803 4.14037 11.2397 4.47412 11.0715C5.21537 10.7081 5.96319 10.4355 6.71756 10.2538C7.47194 10.072 8.23275 9.98116 9 9.98116C9.76725 9.98116 10.5281 10.072 11.2824 10.2538C12.0368 10.4355 12.7846 10.7081 13.5259 11.0715C13.8596 11.2397 14.1263 11.4803 14.3258 11.7933C14.5253 12.1063 14.625 12.4465 14.625 12.8137V13.3417C14.625 13.658 14.5142 13.927 14.2926 14.1487C14.0709 14.3703 13.8019 14.4812 13.4856 14.4812H4.51444C4.19806 14.4812 3.92906 14.3703 3.70744 14.1487C3.48581 13.927 3.375 13.658 3.375 13.3417Z" fill="#9CA3AF"/>
</svg>
